<?xml version="1.0" encoding="utf-8"?>
<!-- Svg Vector Icons : http://www.onlinewebfonts.com/icon -->
<!DOCTYPE svg PUBLIC "-//W3C//DTD SVG 1.1//EN" "http://www.w3.org/Graphics/SVG/1.1/DTD/svg11.dtd">
<svg version="1.1" xmlns="http://www.w3.org/2000/svg" xmlns:xlink="http://www.w3.org/1999/xlink" x="0px" y="0px" viewBox="0 0 1000 1000" enable-background="new 0 0 1000 1000" xml:space="preserve">
<metadata> Svg Vector Icons : http://www.onlinewebfonts.com/icon </metadata>
<g><g transform="translate(0.000000,512.000000) scale(0.100000,-0.100000)"><path d="M4640.8,5018.4C2574,4818.7,853,3414.5,288.3,1466.9C153.8,1005.9,98.1,606.3,100,101.2c0-751,159.4-1427.1,493.6-2103.3c403.4-816.3,958.5-1450.2,1719.1-1957.3c249.7-167.1,743.4-416.8,1025.7-520.5c898.9-330.4,1917-401.5,2844.7-201.7c952.7,207.4,1828.6,683.8,2506.6,1363.8c374.6,376.5,668.4,785.6,908.5,1265.8c109.5,219,301.6,691.5,301.6,743.4c0,3.8-82.6-59.5-184.4-144.1c-399.5-330.4-808.7-555.1-1296.5-710.7c-1298.5-411-2746.8-78.8-3745.6,856.7c-1519.4,1429.1-1536.6,3832-34.6,5278.4c99.9,96,232.4,213.2,295.8,261.2c324.6,247.8,751,476.4,1119.8,601.2c124.8,40.3,186.3,69.2,163.3,74.9C5887.4,5005,5080.7,5060.7,4640.8,5018.4z"/></g></g>
</svg>